<svg width="0" height="0" class="hidden">
  <symbol fill="none" xmlns="http://www.w3.org/2000/svg" viewBox="0 0 24 24" id="Category">
    <path opacity=".4" d="M16.076 2h3.386A2.549 2.549 0 0122 4.56v3.415a2.549 2.549 0 01-2.538 2.56h-3.386a2.549 2.549 0 01-2.539-2.56V4.56A2.549 2.549 0 0116.076 2z" fill="#200E32"></path>
    <path fill-rule="evenodd" clip-rule="evenodd" d="M4.539 2h3.385a2.549 2.549 0 012.539 2.56v3.415a2.549 2.549 0 01-2.539 2.56H4.54A2.549 2.549 0 012 7.974V4.56A2.549 2.549 0 014.539 2zm0 11.466h3.385a2.549 2.549 0 012.539 2.56v3.414A2.55 2.55 0 017.924 22H4.54A2.55 2.55 0 012 19.44v-3.415a2.549 2.549 0 012.539-2.56zm14.923 0h-3.386a2.549 2.549 0 00-2.539 2.56v3.414A2.55 2.55 0 0016.076 22h3.386A2.55 2.55 0 0022 19.44v-3.415a2.549 2.549 0 00-2.538-2.56z" fill="#200E32"></path>
  </symbol>
  <symbol fill="none" xmlns="http://www.w3.org/2000/svg" viewBox="0 0 24 24" id="Discount">
    <path opacity=".4" d="M12 21.998a3.005 3.005 0 01-2.125-.875l-.73-.73a1.504 1.504 0 00-1.064-.439H7.054a3.015 3.015 0 01-3.01-3.01v-1.029a1.509 1.509 0 00-.44-1.065l-.719-.717a3.015 3.015 0 01-.01-4.257l.73-.73c.281-.284.437-.663.438-1.065V7.055a3.015 3.015 0 013.011-3.012h1.028c.401 0 .78-.156 1.064-.44l.72-.718a3.014 3.014 0 014.256-.01l.73.73a1.5 1.5 0 001.063.438h1.028a3.015 3.015 0 013.011 3.012v1.027c.001.401.157.78.44 1.065l.718.718c.57.566.884 1.32.887 2.125.002.8-.306 1.553-.867 2.122l-.029.03-.71.71a1.504 1.504 0 00-.439 1.064v1.027a3.015 3.015 0 01-3.01 3.011h-1.029c-.4.001-.78.157-1.064.44l-.719.718c-.586.59-1.36.886-2.133.886z" fill="#200E32"></path>
    <path fill-rule="evenodd" clip-rule="evenodd" d="M10.043 10.05a.856.856 0 01-.616.255.903.903 0 01-.615-.255.88.88 0 01-.26-.62c0-.218.092-.442.254-.615a.792.792 0 01.3-.194.856.856 0 01.942.193.833.833 0 01.264.616.84.84 0 01-.27.62zm5.148-1.24a.878.878 0 00-1.238 0l-5.14 5.14a.877.877 0 00.62 1.494.867.867 0 00.617-.256l5.14-5.14a.877.877 0 000-1.238zm-.285 4.954a.885.885 0 00-.964.194 1.176 1.176 0 00-.18.27.85.85 0 00-.06.342.845.845 0 00.25.622.896.896 0 00.625.253c.222 0 .44-.09.619-.257a.865.865 0 00.246-.618.864.864 0 00-.247-.62.798.798 0 00-.29-.186z" fill="#200E32"></path>
  </symbol>
  <symbol fill="none" xmlns="http://www.w3.org/2000/svg" viewBox="0 0 24 24" id="EditSquare">
    <path opacity=".4" d="M16.664 21.99h-9.33A5.343 5.343 0 013.4 20.6a5.346 5.346 0 01-1.389-3.936v-9.33a5.345 5.345 0 011.388-3.936A5.347 5.347 0 017.335 2.01h9.33a5.338 5.338 0 013.932 1.388 5.372 5.372 0 011.393 3.937v9.33a5.35 5.35 0 01-1.389 3.936 5.347 5.347 0 01-3.937 1.389z" fill="#200E32"></path>
    <path d="M17.055 10.398l-6.553 6.585a1.8 1.8 0 01-1.256.517H6.958a.463.463 0 01-.331-.137.457.457 0 01-.127-.331l.058-2.313c.01-.458.195-.887.516-1.21l4.645-4.653a.211.211 0 01.292 0l1.629 1.623a.615.615 0 00.428.175c.36 0 .643-.293.643-.644a.661.661 0 00-.175-.449c-.03-.039-1.58-1.583-1.58-1.583a.26.26 0 010-.36l.652-.664a1.537 1.537 0 012.18 0l1.267 1.268a1.55 1.55 0 010 2.176z" fill="#200E32"></path>
  </symbol>
  <symbol fill="none" xmlns="http://www.w3.org/2000/svg" viewBox="0 0 24 24" id="Paper">
    <path opacity=".4" d="M18.809 9.021c-.452 0-1.05-.01-1.794-.01-1.816 0-3.31-1.503-3.31-3.336V2.459A.456.456 0 0013.254 2h-5.29C5.496 2 3.5 4.026 3.5 6.509v10.775C3.5 19.889 5.59 22 8.17 22h7.876c2.46 0 4.454-2.013 4.454-4.498V9.471a.453.453 0 00-.453-.458c-.422.003-.93.008-1.238.008z" fill="#200E32"></path>
    <path opacity=".4" d="M16.084 2.567a.477.477 0 00-.821.334v2.637c0 1.106.911 2.016 2.017 2.016.697.008 1.665.01 2.487.008a.477.477 0 00.343-.808l-4.026-4.187z" fill="#200E32"></path>
    <path fill-rule="evenodd" clip-rule="evenodd" d="M8.974 11.388h3.385a.745.745 0 100-1.49H8.974a.745.745 0 000 1.49zm0 4.994h5.444a.745.745 0 100-1.49H8.974a.745.745 0 000 1.49z" fill="#200E32"></path>
  </symbol>
    <symbol xmlns="http://www.w3.org/2000/svg" viewBox="0 -53 384 384" id="menu">
    <path d="M368 154.668H16c-8.832 0-16-7.168-16-16s7.168-16 16-16h352c8.832 0 16 7.168 16 16s-7.168 16-16 16zM368 32H16C7.168 32 0 24.832 0 16S7.168 0 16 0h352c8.832 0 16 7.168 16 16s-7.168 16-16 16zm0 245.332H16c-8.832 0-16-7.168-16-16s7.168-16 16-16h352c8.832 0 16 7.168 16 16s-7.168 16-16 16zm0 0"></path>
  </symbol>
    <symbol xmlns="http://www.w3.org/2000/svg" viewBox="0 0 963 963" id="right-arrow-in-circular-button">
    <path d="M0 481.5C0 747.4 215.6 963 481.5 963S963 747.4 963 481.5 747.4 0 481.5 0C215.5 0 0 215.6 0 481.5zm691.601 61.8L478.2 776.601C460.4 796 436.101 805.8 411.8 805.8c-21.699 0-43.5-7.8-60.699-23.6-36.7-33.6-39.2-90.5-5.601-127.2l157.8-172.399L340.601 305.3c-33.601-36.6-31.101-93.6 5.5-127.2 36.6-33.6 93.6-31.1 127.199 5.5l218.2 238.1c31.5 34.401 31.601 87.2.101 121.6z"></path>
  </symbol>
    <symbol fill="none" xmlns="http://www.w3.org/2000/svg" viewBox="0 0 24 24" id="Document">
    <path opacity=".4" d="M16.191 2H7.81C4.77 2 3 3.78 3 6.83v10.33C3 20.26 4.77 22 7.81 22h8.381C19.28 22 21 20.26 21 17.16V6.83C21 3.78 19.28 2 16.191 2z" fill=""></path>
    <path fill-rule="evenodd" clip-rule="evenodd" d="M8.08 6.65v.01a.78.78 0 000 1.56h2.989c.431 0 .781-.35.781-.791a.781.781 0 00-.781-.779H8.08zm7.84 6.09H8.08a.78.78 0 010-1.561h7.84a.781.781 0 010 1.561zm0 4.57H8.08c-.3.04-.59-.11-.75-.36a.795.795 0 01.75-1.21h7.84c.399.04.7.38.7.79 0 .399-.301.74-.7.78z" fill="#200E32"></path>
  </symbol>
    <symbol xmlns="http://www.w3.org/2000/svg" viewBox="0 0 329.269 329" id="close">
    <path d="M194.8 164.77L323.013 36.555c8.343-8.34 8.343-21.825 0-30.164-8.34-8.34-21.825-8.34-30.164 0L164.633 134.605 36.422 6.391c-8.344-8.34-21.824-8.34-30.164 0-8.344 8.34-8.344 21.824 0 30.164l128.21 128.215L6.259 292.984c-8.344 8.34-8.344 21.825 0 30.164a21.266 21.266 0 0015.082 6.25c5.46 0 10.922-2.09 15.082-6.25l128.21-128.214 128.216 128.214a21.273 21.273 0 0015.082 6.25c5.46 0 10.922-2.09 15.082-6.25 8.343-8.34 8.343-21.824 0-30.164zm0 0"></path>
  </symbol>
  <symbol xmlns="http://www.w3.org/2000/svg" viewBox="0 0 405.272 405.272" id="check">
    <path d="M393.401 124.425L179.603 338.208c-15.832 15.835-41.514 15.835-57.361 0L11.878 227.836c-15.838-15.835-15.838-41.52 0-57.358 15.841-15.841 41.521-15.841 57.355-.006l81.698 81.699L336.037 67.064c15.841-15.841 41.523-15.829 57.358 0 15.835 15.838 15.835 41.514.006 57.361z"></path>
  </symbol>
   <symbol version="1.1" id="label" xmlns="http://www.w3.org/2000/svg" xmlns:xlink="http://www.w3.org/1999/xlink" x="0px" y="0px" xml:space="preserve" viewBox="0 0 512 512">

    <g>

      <g>

        <path d="M458.667,0H323.349c-25.643,0-49.749,9.984-67.883,28.117L18.197,265.387C6.464,277.12,0,292.715,0,309.376

			c0,16.576,6.464,32.171,18.197,43.904L158.72,493.803C170.453,505.536,186.048,512,202.709,512

			c16.576,0,32.171-6.464,43.904-18.197l237.269-237.269C502.016,238.4,512,214.293,512,188.651V53.333

			C512,23.936,488.064,0,458.667,0z M490.667,188.651c0,19.947-7.765,38.699-21.845,52.779L231.531,478.72

			c-15.339,15.339-42.24,15.445-57.707,0L33.28,338.176c-7.701-7.68-11.947-17.92-11.947-28.885c0-10.88,4.245-21.12,11.947-28.821

			L270.549,43.2c14.123-14.101,32.853-21.867,52.8-21.867h135.317c17.643,0,32,14.357,32,32V188.651z"></path>

      </g>

    </g>

    <g>

      <g>

        <path d="M394.667,64c-29.397,0-53.333,23.936-53.333,53.333c0,29.397,23.936,53.333,53.333,53.333S448,146.731,448,117.333

			C448,87.936,424.064,64,394.667,64z M394.667,149.333c-17.643,0-32-14.357-32-32c0-17.643,14.357-32,32-32s32,14.357,32,32

			C426.667,134.976,412.309,149.333,394.667,149.333z"></path>

      </g>

    </g>

    <g></g>

    <g></g>

    <g></g>

    <g></g>

    <g></g>

    <g></g>

    <g></g>

    <g></g>

    <g></g>

    <g></g>

    <g></g>

    <g></g>

    <g></g>

    <g></g>

    <g></g>

  </symbol>


    <symbol xmlns="http://www.w3.org/2000/svg" viewBox="0 0 64 64" id="copy">
    <g id="Layer_100">
      <path d="M44.84,10.5H24.9a5,5,0,0,0-5,5V42.8a5,5,0,0,0,5,5H44.84a5,5,0,0,0,5-5V15.46A5,5,0,0,0,44.84,10.5Zm2,32.3a2,2,0,0,1-2,2H24.9a2,2,0,0,1-2-2V15.46a2,2,0,0,1,2-2H44.84a2,2,0,0,1,2,2Z"></path>
      <path d="M39.07,50.5H19.18a2,2,0,0,1-2-2V21.23a1.5,1.5,0,0,0-3,0V48.51a5,5,0,0,0,5,5H39.07A1.5,1.5,0,0,0,39.07,50.5Z"></path>
    </g>
  </symbol>


</svg>